# File generated by ImageToStl.com - Free Image and 3D model conversion tools

o obj1
v 52.75 33.75299835 5
v 52.75 33.75299835 4.00299978
v 52.75 34.50299835 4.00299978
v 52.75 35.75 5
v 52.75 34.50299835 1.99800003
v 52.75 10.74699974 4.00299978
v 52.75 10.74699974 5
v 52.75 9.99699974 4.00299978
v 52.75 8.75 5
v -82.25 8.75 0
v -82.25 8.75 5
v -82.25 9.99699974 1.99800003
v 52.75 9.99699974 1.99800003
v -82.25 35.75 5
v -82.25 33.75299835 5
v -82.25 10.74699974 5
v -82.25 10.74699974 4.00299978
v -82.25 9.99699974 4.00299978
v 52.75 8.75 0
v -82.25 35.75 0
v 52.75 35.75 0
v -82.25 34.50299835 1.99800003
v -82.25 34.50299835 4.00299978
v -82.25 33.75299835 4.00299978
vn 1 0 0
vn -1 0 0
vn 0 0 1
vn 0 -1 0
vn 0 0 -1
vn 0 1 0
f 1//1 2//1 3//1
f 1//1 3//1 4//1
f 4//1 3//1 5//1
f 6//1 7//1 8//1
f 9//1 8//1 7//1
f 10//2 11//2 12//2
f 13//1 8//1 9//1
f 4//3 14//3 15//3
f 4//3 15//3 1//3
f 7//3 16//3 11//3
f 7//3 11//3 9//3
f 16//2 17//2 18//2
f 18//2 12//2 11//2
f 16//2 18//2 11//2
f 9//4 10//4 19//4
f 19//5 10//5 20//5
f 19//5 20//5 21//5
f 18//6 8//6 12//6
f 14//6 4//6 20//6
f 13//1 19//1 5//1
f 9//1 19//1 13//1
f 19//1 21//1 5//1
f 4//1 5//1 21//1
f 6//5 8//5 18//5
f 6//5 18//5 17//5
f 11//4 10//4 9//4
f 20//2 22//2 14//2
f 23//2 14//2 22//2
f 15//4 24//4 2//4
f 15//4 2//4 1//4
f 22//4 5//4 3//4
f 20//2 10//2 22//2
f 12//2 22//2 10//2
f 4//6 21//6 20//6
f 24//2 15//2 23//2
f 14//2 23//2 15//2
f 3//4 23//4 22//4
f 23//5 3//5 2//5
f 23//5 2//5 24//5
f 8//6 13//6 12//6
f 7//6 6//6 17//6
f 7//6 17//6 16//6
f 12//3 13//3 5//3
f 12//3 5//3 22//3
# Vertices: 24, normals: 6, texture coordinates: 0, faces: 44

